<?xml version="1.0" encoding="UTF-8"?>
<svg id="Layer_1" data-name="Layer 1" xmlns="http://www.w3.org/2000/svg" viewBox="0 0 133.67 56.76">
  <defs>
    <style>
      .cls-1 {
        fill: #af1f24;
      }

      .cls-2 {
        fill: #faebd9;
      }
    </style>
  </defs>
  <polygon class="cls-2" points="133.67 0 117.78 0 109.45 4.48 93.61 6.33 84.48 25.25 67.4 21.35 59.29 7.75 26.71 8.75 16.98 0 0 .25 4.79 56.51 110.36 56.76 129.52 48.44 133.67 0"/>
  <g>
    <path class="cls-1" d="M28.15,23.16c1.99,1.89,3.11,2.83,3.35,2.83s1.33-.9,3.27-2.71c1.94-1.81,2.92-2.85,2.92-3.12,0-.3-.96-1.38-2.89-3.23-1.93-1.85-3.03-2.78-3.3-2.78-.24,0-1.35.93-3.35,2.79-2,1.86-2.99,2.9-2.99,3.12,0,.19,1,1.22,2.99,3.11Z"/>
    <path class="cls-1" d="M41.82,23.68c1.99,1.88,3.11,2.82,3.35,2.82.15,0,.79-.49,1.9-1.46,1.12-.97,2.12-1.91,3.02-2.8,1.81,1.67,2.82,2.51,3.02,2.51.24,0,1.33-.9,3.27-2.71,1.94-1.81,2.92-2.85,2.92-3.12,0-.3-.96-1.38-2.89-3.23-1.93-1.85-3.03-2.78-3.3-2.78-.15,0-.78.49-1.88,1.46-1.1.97-2.11,1.92-3.04,2.85-1.78-1.71-2.78-2.56-3.02-2.56-.29,0-1.42.93-3.39,2.79-1.97,1.86-2.95,2.91-2.95,3.15,0,.19,1,1.22,2.99,3.09Z"/>
    <path class="cls-1" d="M96.6,18.53c1.99,1.88,3.11,2.82,3.35,2.82.15,0,.79-.49,1.93-1.46,1.13-.97,2.14-1.9,3.02-2.78,1.79,1.66,2.79,2.49,2.99,2.49.24,0,1.33-.9,3.27-2.71,1.94-1.81,2.92-2.85,2.92-3.12,0-.3-.96-1.38-2.89-3.23-1.93-1.85-3.03-2.78-3.3-2.78-.15,0-.78.49-1.88,1.46-1.1.97-2.11,1.92-3.04,2.85-1.76-1.69-2.76-2.54-3.02-2.54-.29,0-1.42.93-3.39,2.78-1.97,1.85-2.95,2.9-2.95,3.13,0,.19,1,1.22,2.99,3.09Z"/>
    <path class="cls-1" d="M126.43,4.94c-.34.15-1.41.56-3.21,1.23-1.8.67-3.43,1.29-4.88,1.88-1.45.58-2.17.93-2.16,1.05l1.93,26.12-3.42,1.67h0s-.07.04-.1.06c-.05.02-.11.05-.16.07-.2.09-.4.17-.59.25-.04.02-.08.03-.12.05-.05.02-.09.04-.14.06-.07.03-.14.06-.21.09-.05.02-.09.04-.13.06-.06.02-.11.05-.16.07-.12.05-.24.1-.36.14-.03.01-.05.02-.08.03-.05.02-.1.04-.15.06-.05.02-.1.04-.14.06-.08.03-.16.06-.24.09-.05.02-.1.04-.15.06-.16.06-.32.12-.47.17-.05.02-.1.04-.16.06-.17.06-.32.11-.47.16-.05.01-.09.03-.13.04-.09.03-.18.05-.26.08-.02,0-.04.01-.07.02-.08.02-.16.04-.23.06,0,0,0,0,0,0-.05.01-.11.02-.16.04-.06.01-.11.02-.16.03-.04,0-.07.01-.11.02-.08.01-.16.02-.22.02-.03,0-.06-.02-.1-.05,0,0-.02-.01-.03-.02-.01-.01-.03-.03-.05-.04-.09-.1-.21-.25-.36-.47.04-.06.09-.12.13-.19.04-.06.09-.13.13-.19.04-.06.09-.13.13-.2,0,0,0,0,0,0,.06-.1.13-.2.19-.3h0c.04-.07.08-.14.12-.21,0,0,0,0,0,0,.12-.21.25-.42.37-.64.02-.04.04-.07.06-.11.04-.07.08-.15.12-.22.67-1.28,1.27-2.75,1.8-4.41.05-.15.09-.29.14-.44.11-.35.21-.7.31-1.07t0,0s.03-.1.04-.14c0,0,0,0,0,0,.01-.05.02-.1.03-.15.08-.58-.07-1.24-.44-1.99-.44-.88-1.06-1.69-1.86-2.45-.8-.75-1.7-1.43-2.7-2.04-1-.61-1.97-.98-2.93-1.12-.74-.1-1.41-.06-2.01.14-.04.01-.07.02-.11.04-.07.03-.14.05-.21.08-.07.03-.14.06-.2.1-.23.14-.47.33-.72.56-.03.03-.06.06-.09.09-.03.03-.06.06-.1.09-.05.05-.1.1-.14.15-.06.07-.13.14-.2.21-.05.06-.1.11-.15.17-.57.67-1.19,1.54-1.85,2.63-.35.58-.68,1.14-.99,1.7-.07.12-.14.25-.2.37-.57,1.04-1.06,2.05-1.47,3.02-.05.11-.1.23-.14.34-.05.11-.09.23-.14.34l-10.02,4.62c-.35.14-.68.27-.96.39,0,0,0,0-.01,0-.06.02-.12.05-.18.07-.04.02-.08.03-.12.05-.05.02-.1.04-.15.06,0,0-.01,0-.02,0-.03.01-.07.03-.1.04-.02,0-.04.01-.05.02-.03.01-.06.03-.1.04-.12.05-.23.09-.33.13-.03.01-.06.02-.08.03-.03.01-.05.02-.08.03-.02,0-.04.02-.06.02-.02,0-.05.02-.07.03-.03.01-.06.02-.09.04-.01,0-.02,0-.03.01-.03,0-.05.02-.07.03,0,0-.02,0-.03,0-.11.04-.19.07-.24.09,0,0,0,0-.01,0-.2-.34-.41-.68-.65-1.04h0c-.09-.14-.19-.28-.29-.43h0c-.45-.65-.97-1.32-1.56-2.01-1.04-1.23-2.15-2.4-3.34-3.49-1.18-1.09-2.41-1.99-3.66-2.69-1.26-.7-2.34-1.02-3.23-.95-.14.06-.4.38-.78.94t0,0c-.1.14-.2.3-.31.47-.05.09-.11.18-.17.27-.04.06-.08.13-.12.19-.02.03-.04.07-.06.1-.04.07-.08.14-.13.21-.02.04-.04.07-.07.11-.07.11-.13.22-.2.34-.02.04-.05.08-.07.12-.1.16-.19.32-.29.5-.03.04-.05.09-.08.13-.05.09-.1.18-.16.27h0c-.11.18-.22.37-.33.57-.06.1-.11.2-.17.3-.09.15-.18.31-.27.47-.06.11-.12.22-.18.33-.06.11-.13.22-.19.34-.03.06-.06.11-.1.17-.95.42-2.3,1.01-4.05,1.76-1.75.75-3.21,1.38-4.38,1.89l-.05.07-2.03.87c-.64.29-1.35.56-2.13.81.54-3.4.96-6.15,1.24-8.24,0-.24-.07-.41-.2-.51-.14-.1-.41-.08-.84.08l-16.56,6.97-2.08.89c-.64.29-1.35.56-2.13.81.54-3.4.95-6.15,1.24-8.24,0-.25-.09-.42-.27-.51-.18-.08-.45-.06-.82.08l-16.51,6.97h0c-1.99.86-2.99.7-2.99-.48,0-1.47.12-3.61.37-6.4.24-2.8.6-6.65,1.08-11.55.47-4.9.87-9.28,1.19-13.14,0-.24-.07-.41-.2-.51-.14-.1-.41-.08-.84.08-.36.19-1.39.67-3.12,1.45-1.72.78-3.31,1.51-4.74,2.21-1.44.69-2.21,1.14-2.31,1.34.34,5.17.65,9.79.95,13.85.3,4.06.56,7.54.79,10.45.23,2.91.39,5.06.49,6.44.44,5.78,1.88,8.67,4.31,8.67,1.4,0,3.09-.47,5.05-1.39h0c.85-.39,2.21-.97,4.08-1.76,1.89-.8,3.33-1.42,4.31-1.86.17,1.2.37,2.15.61,2.84.78,2.28,1.9,3.42,3.37,3.42,1.57,0,4.29-.88,8.17-2.64.43-.19.87-.39,1.33-.59.45-.2.92-.4,1.39-.6.95-.41,1.98-.85,3.09-1.32,1.12-.47,1.99-.85,2.61-1.12.17,1.2.37,2.15.61,2.84.39,1.08.85,1.92,1.37,2.52.52.6,1.19.9,2,.9,1.84,0,4.57-.88,8.17-2.64l9.18-3.91s.03.07.05.11c0,.02.02.03.02.05,0,0,0,.02.01.03.01.03.03.05.04.08,0,.01.01.03.02.04,0,.01.01.03.02.04.02.03.03.07.05.11.03.06.05.11.08.18,0,.01.01.03.02.04.01.03.02.05.04.08.04.09.09.19.14.3.1.21.2.42.29.61.12.24.23.47.33.67.05.09.09.18.14.28.07.14.15.28.23.42.04.08.09.15.14.23.04.07.08.13.12.2.07.12.15.24.23.34.08.1.15.2.23.29.03.04.06.07.1.1.03.03.06.06.1.09.02.02.03.03.05.04.02.01.03.03.05.04.02.01.03.03.05.04.05.04.1.07.15.1.1.06.2.11.3.14.03,0,.06.02.09.02.02,0,.04,0,.06.01.05,0,.1.01.15.01s.1,0,.15,0t0,0c.11,0,.23-.03.35-.05h0c.13-.03.27-.06.42-.11.15-.04.31-.1.48-.16h0c.17-.06.35-.13.54-.22.02,0,.05-.02.07-.03.05-.02.1-.04.15-.06.63-.27,1.35-.63,2.19-1.08.8,1.32,1.59,2.27,2.37,2.85.04.03.09.06.13.09.05.04.1.07.16.1.04.02.07.04.1.06.04.02.07.04.11.06.03.02.06.03.09.05.08.04.16.08.24.11.01,0,.02.01.04.01.04.01.07.03.11.04.28.1.56.15.84.15.08,0,.18,0,.28-.02h0c.08,0,.16-.02.24-.04.03,0,.06-.01.09-.02.03,0,.06-.01.09-.02.03,0,.06-.01.09-.02.02,0,.03,0,.05-.01.03,0,.07-.02.1-.03.05-.01.1-.03.16-.05.04-.01.07-.02.11-.03.02,0,.04-.01.06-.02.02,0,.04-.01.06-.02.04-.01.08-.03.12-.04.28-.1.56-.2.82-.3.03,0,.05-.02.08-.03.01,0,.03,0,.04-.02.1-.04.2-.08.31-.12.15-.06.31-.13.48-.2.05-.02.1-.04.15-.07.03-.01.05-.02.08-.03h0c.05-.02.1-.05.15-.07h0s.1-.04.15-.07c.17-.08.32-.14.46-.21.04-.02.08-.04.12-.05.06-.03.11-.05.16-.07.28-.13.66-.3,1.13-.52.07-.03.13-.06.2-.09.04-.02.07-.03.11-.05.3-.14.53-.25.71-.34l.05-.02h0s14.63-6.19,14.63-6.19c.06.11.11.23.17.34.06.11.12.23.17.34.35.67.72,1.32,1.1,1.95.51.84,1.1,1.7,1.79,2.6.32.42.65.8.99,1.14.25.25.5.47.76.68.07.06.14.11.21.16,0,0,0,0,0,0,.07.05.14.1.22.15.33.22.65.4.96.52,0,0,0,0,0,0,.04.02.09.03.13.05,0,0,0,0,0,0,.04.02.09.03.13.04.09.03.18.05.28.07.06.01.12.02.18.03.03,0,.07.01.1.01.01,0,.03,0,.04,0,.04,0,.09,0,.13.01.09,0,.17,0,.26,0,.02,0,.06,0,.1,0h0s.04,0,.07,0c.02,0,.03,0,.05,0,.11-.02.25-.04.42-.08.03,0,.06-.01.09-.02.03,0,.06-.01.09-.02.02,0,.03,0,.05-.01.03,0,.07-.01.1-.02.04,0,.07-.02.11-.02.34-.08.75-.19,1.23-.32.03,0,.07-.02.1-.03.34-.1.71-.21,1.11-.33.33-.1.65-.2.96-.31.13-.04.25-.08.38-.13.13-.04.25-.09.38-.13.44-.15.87-.31,1.29-.47h0s8.44-3.8,8.44-3.8c.37-.14.56-.41.56-.81l3.75-37.92c0-.57-.35-.72-1.04-.43Z"/>
  </g>
</svg>